<?xml version="1.0" standalone="no"?>
<!DOCTYPE svg PUBLIC "-//W3C//DTD SVG 20010904//EN"
 "http://www.w3.org/TR/2001/REC-SVG-20010904/DTD/svg10.dtd">
<svg version="1.0" xmlns="http://www.w3.org/2000/svg"
 width="500.000000pt" height="500.000000pt" viewBox="0 0 500.000000 500.000000"
 preserveAspectRatio="xMidYMid meet">

<g transform="translate(0.000000,500.000000) scale(0.100000,-0.100000)"
fill="#000000" stroke="none">
<path d="M4145 2811 c-141 -23 -247 -147 -248 -291 -1 -112 45 -203 132 -260
60 -40 113 -53 191 -48 109 8 197 65 248 163 37 69 39 197 4 266 -60 122 -193
191 -327 170z m190 -166 c0 -24 -130 -305 -141 -305 -7 0 -22 29 -33 63 l-22
64 -60 17 c-45 12 -60 21 -57 33 2 10 57 40 143 79 134 60 170 71 170 49z"/>
<path d="M4183 2563 c-46 -20 -83 -40 -83 -44 0 -4 13 -10 29 -14 34 -7 44
-18 58 -60 l11 -30 32 70 c43 94 51 115 42 115 -4 -1 -44 -17 -89 -37z"/>
<path d="M1150 2673 c-121 -20 -190 -103 -177 -214 13 -111 96 -172 236 -173
162 0 251 68 251 194 0 140 -132 222 -310 193z m120 -133 c13 -13 20 -33 20
-57 0 -44 -6 -56 -37 -72 -32 -16 -57 -14 -87 10 -34 27 -37 88 -4 119 28 26
82 26 108 0z"/>
<path d="M1659 2667 c-95 -27 -149 -94 -149 -184 1 -127 87 -196 245 -197 85
-1 150 22 192 67 86 91 60 243 -51 296 -58 27 -174 36 -237 18z m148 -129 c33
-31 32 -90 -3 -117 -30 -24 -55 -26 -87 -10 -31 16 -37 28 -37 72 0 70 75 104
127 55z"/>
<path d="M530 2480 l0 -190 203 0 202 0 -3 60 -4 60 -114 0 -114 0 0 130 0
130 -85 0 -85 0 0 -190z"/>
<path d="M2050 2480 l0 -190 85 0 85 0 0 64 0 63 94 6 c140 8 186 40 186 127
0 102 -42 120 -274 120 l-176 0 0 -190z m298 68 c4 -21 -42 -32 -92 -22 -27 4
-36 11 -36 26 0 17 6 19 62 16 49 -2 63 -7 66 -20z"/>
<path d="M2550 2480 l0 -190 85 0 85 0 0 190 0 190 -85 0 -85 0 0 -190z"/>
<path d="M2780 2480 l0 -190 85 0 85 0 0 70 0 69 118 3 117 3 3 48 3 47 -120
0 c-114 0 -121 1 -121 20 0 19 7 20 120 20 l120 0 0 50 0 50 -205 0 -205 0 0
-190z"/>
<path d="M3315 2559 l85 -111 0 -79 0 -79 85 0 85 0 0 79 0 78 86 112 85 111
-89 0 -90 0 -37 -55 c-21 -30 -39 -55 -40 -55 -1 0 -19 25 -39 55 l-36 55 -90
0 -89 0 84 -111z"/>
</g>
</svg>
